<svg xmlns="http://www.w3.org/2000/svg" viewBox="0 0 64 64">
<rect width="64" height="64" rx="14" fill="#2a78d6"/>
<g fill="#f5f4ef" fill-rule="evenodd"><path d="M11.5 16.8L12.2 17.3L11.2 17.5L12.0 18.5L11.2 18.7L12.4 19.8L14.6 19.8L15.5 19.1L15.0 17.4L13.9 17.7L13.2 17.1L12.6 17.6L12.5 16.3L12.3 16.7L12.1 16.4L11.5 16.8Z"/><path d="M12.9 32.7L13.3 33.6L15.3 33.3L15.8 31.3L16.4 31.1L16.2 30.2L14.9 30.0L14.4 30.8L13.6 30.6L13.4 31.4L13.9 31.9L12.9 32.7Z"/><path d="M9.9 46.6L10.4 47.0L9.9 48.5L11.6 48.7L12.5 50.1L13.6 49.6L15.5 49.9L17.7 48.1L17.4 47.4L18.4 46.0L20.5 45.1L20.6 43.7L21.3 43.4L23.0 44.0L24.9 42.7L25.9 43.1L26.7 44.8L30.4 47.1L30.9 48.4L30.5 49.2L30.9 49.3L31.7 48.1L31.1 47.3L31.3 46.7L32.7 46.8L30.6 45.6L30.6 45.1L29.5 45.0L27.6 42.9L27.4 41.7L28.4 41.2L28.7 42.2L29.1 41.6L30.4 43.5L33.3 45.0L33.4 46.5L34.9 47.7L34.7 47.9L35.1 48.4L36.8 48.3L35.1 48.8L35.7 49.9L37.0 50.1L36.5 49.0L37.1 49.0L36.8 48.5L37.5 48.7L37.1 48.0L37.9 48.2L37.4 47.7L36.3 47.7L36.7 47.2L35.9 46.0L37.1 46.3L36.8 45.5L37.8 45.1L39.1 45.2L38.8 45.8L39.8 44.6L40.7 44.4L39.3 43.1L40.7 38.3L41.4 37.9L41.7 38.0L41.2 38.2L41.5 38.4L42.7 38.1L42.2 39.1L42.9 39.2L43.4 39.9L45.0 38.2L44.2 38.6L42.7 38.0L43.4 38.1L46.0 35.6L45.9 36.3L45.3 36.6L46.2 37.0L45.1 38.4L49.4 39.4L50.0 40.5L48.0 42.1L45.1 41.9L43.3 42.8L42.5 43.8L40.9 44.1L41.3 44.6L40.9 45.0L38.9 45.9L38.9 46.5L39.5 46.3L39.8 47.4L39.2 47.7L40.1 47.9L40.4 48.8L41.0 48.7L40.5 49.1L41.4 48.8L42.5 49.2L43.1 48.3L45.1 48.6L47.4 46.8L47.9 47.9L48.0 46.7L54.1 43.7L52.7 41.8L52.9 41.2L53.3 41.4L38.7 13.9L38.1 14.1L38.8 14.5L39.0 15.3L39.5 15.5L39.9 16.5L38.9 16.3L38.4 17.7L39.2 18.5L39.9 18.6L37.4 18.9L38.6 19.6L38.3 19.8L36.8 19.5L36.3 18.8L36.4 18.3L35.4 18.1L35.7 17.8L34.7 17.4L37.8 17.4L38.3 16.2L37.8 15.4L35.3 14.8L34.4 15.5L34.4 14.9L33.8 14.9L34.1 14.6L33.1 14.9L32.9 14.8L33.2 14.3L32.2 14.4L31.9 13.9L31.2 15.0L31.2 14.1L29.9 15.3L30.1 15.5L29.6 15.4L29.6 15.9L29.1 15.4L28.4 16.3L28.7 16.5L28.6 17.0L28.1 17.0L28.0 16.6L27.3 17.5L28.6 17.3L27.8 17.9L27.9 18.3L26.8 19.8L26.7 20.9L26.2 21.1L26.4 21.3L25.7 22.3L26.1 22.6L25.2 22.3L25.1 23.2L23.6 23.7L23.3 24.2L23.4 25.0L23.1 25.3L23.5 26.0L23.2 26.5L23.6 26.2L23.2 26.9L23.7 26.9L23.4 27.7L24.4 28.4L26.1 26.7L27.5 29.8L27.3 30.2L27.6 31.1L29.2 30.3L29.5 29.4L29.5 27.5L30.4 27.0L30.6 26.2L29.5 25.3L29.5 23.5L30.8 21.8L31.2 19.7L32.3 19.7L32.6 20.3L31.2 22.9L31.7 25.6L33.0 25.7L35.3 24.2L35.4 24.6L36.3 24.8L35.3 25.3L35.5 25.7L34.1 25.7L33.1 26.4L33.4 27.3L33.8 27.2L33.9 28.4L32.4 28.3L32.2 29.5L32.6 31.1L31.8 31.2L32.2 31.4L31.6 31.9L30.8 31.4L28.4 32.6L27.8 31.9L26.4 32.6L26.5 32.3L25.4 31.7L25.8 31.7L25.5 31.5L25.6 30.8L26.3 30.1L25.9 29.8L26.1 28.7L25.0 29.3L24.9 29.7L25.4 29.8L24.7 29.8L24.7 30.9L25.0 31.1L25.1 32.6L25.6 33.1L25.0 32.7L24.7 33.2L22.5 33.4L21.6 35.1L22.0 35.2L20.2 35.6L20.1 36.3L19.0 36.8L19.4 37.0L17.7 36.4L17.8 37.6L15.7 37.3L15.7 38.0L16.9 38.6L17.8 40.1L17.5 40.4L17.9 41.2L17.6 40.9L17.1 42.8L16.5 43.1L12.4 41.8L11.2 42.1L11.0 44.5L9.9 46.6Z"/><path d="M16.5 28.7L17.2 28.8L16.4 30.1L17.2 29.4L16.7 30.9L17.9 30.8L17.5 31.3L18.0 31.6L17.6 32.3L17.8 32.6L16.9 32.5L16.5 32.9L16.9 33.3L15.9 33.9L17.1 34.5L17.8 34.3L15.3 35.6L20.1 35.2L19.5 34.9L20.4 34.3L20.5 33.6L19.5 33.3L19.7 32.8L19.1 32.4L19.6 32.6L19.6 32.0L19.0 31.4L18.7 30.0L17.8 29.7L18.5 29.6L18.1 29.4L19.1 28.4L17.7 28.1L18.7 27.0L17.6 26.8L17.2 27.4L17.4 27.7L17.0 27.5L17.1 28.4L16.5 28.7Z"/></g>
</svg>
